<svg xmlns="http://www.w3.org/2000/svg" width="45.699" height="55.273" viewBox="154 11 45.699 55.273"><g data-name="connect-logo_12"><path d="m176.852 45.854 7.654 2.643 7.66 2.642h-30.632l7.66-2.642 7.658-2.643Zm0-13.428 13.382 15.452-13.382-8.027-13.387 8.027 13.387-15.452ZM157.438 52.26l9.705-20.627L176.853 11l9.704 20.634 9.71 20.627-5.704-8.096-13.71-20.662-13.717 20.633-5.698 8.125Zm39.268 14c-.924-.132-1.802-.577-1.802-1.786v-4.407c0-1.266.654-1.787 1.697-1.787h1.392c1.048 0 1.706.515 1.706 1.787v4.407c0 1.22-.878 1.654-1.796 1.787h-.05v-1.07h.045a.856.856 0 0 0 .654-.387.704.704 0 0 0 .07-.324v-4.413c0-.491-.18-.763-.62-.763h-1.391c-.44 0-.614.272-.614.763v4.407a.705.705 0 0 0 .07.324.837.837 0 0 0 .649.387h.044v1.082l-.054-.006Zm-7.8-1.034c.435 0 .615-.272.615-.764v-4.4c0-.492-.18-.764-.614-.764h-1.188c-.439 0-.613.272-.613.764v4.412c0 .491.18.763.613.763l1.188-.011Zm1.667-5.286v.145c.003.056.003.112 0 .167v4.222c0 1.272-.663 1.787-1.706 1.787h-1.148c-1.047 0-1.706-.515-1.706-1.787v-4.412c0-1.261.654-1.787 1.696-1.787h1.198c.45.005.874.25 1.148.665.268-.43.704-.676 1.162-.654h.898c1.048 0 1.707.52 1.707 1.787v4.4c0 1.331-.998 1.736-1.996 1.788h-.055v-1.035h.04c.294-.047.738-.162.878-.515a.658.658 0 0 0 .045-.249v-4.4c0-.492-.18-.764-.619-.764h-.693c-.41 0-.774.145-.849.654v-.012Zm-10.143.723v-.161a1.735 1.735 0 0 1 .419-1.262 1.7 1.7 0 0 1 1.232-.422h.454c.455.012.895.19 1.258.51a.04.04 0 0 0 .035 0v-1.042h1.102v6.142c0 1.307-.678 1.839-1.756 1.839h-1.287c-1.078 0-1.757-.532-1.757-1.84l.1-1.636h1.093l-.105 1.642c0 .527.2.81.669.81h1.282c.464 0 .669-.283.669-.81v-3.33a1.31 1.31 0 0 0-.085-.417c-.282-.48-.734-.792-1.233-.85h-.434c-.454 0-.613.324-.613.821l.05.943h-1.093v-.937Zm-5.778-.544a.476.476 0 0 1 0-.08v-.076a1.717 1.717 0 0 1 .434-1.266 1.77 1.77 0 0 1 1.262-.41h.998c1.073 0 1.751.531 1.751 1.838v4.308c0 1.307-.678 1.84-1.75 1.84h-1.288c-1.078 0-1.756-.533-1.756-1.84l.154-1.734h1.088l-.15 1.734c0 .527.2.816.664.816h1.287c.464 0 .664-.29.664-.816v-4.32c0-.526-.2-.815-.664-.815h-.998c-.469 0-.668.29-.668.816l.05 1.202h-1.078V60.12Zm-3.089 5.107c.47 0 .669-.29.669-.816v-1.688c0-.532-.2-.821-.669-.821h-1.282c-.469 0-.669.289-.669.82v1.7c0 .527.2.816.669.816l1.282-.011Zm-1.9-4.17c.189-.11.396-.169.608-.173h1.292c1.078 0 1.757.526 1.757 1.839v1.7c0 1.307-.679 1.839-1.757 1.839h-1.282c-1.078 0-1.756-.532-1.756-1.84v-4.516c0-1.156.748-1.532 1.656-1.532h2.645v1.024h-2.645a.559.559 0 0 0-.499.19.527.527 0 0 0-.085.318v1.117a.04.04 0 0 0 0 .034h.065Zm-5.953-2.076c.273-.44.714-.7 1.182-.694h.804c1.072 0 1.721.52 1.721 1.822v4.314c0 1.37-1.033 1.735-2.046 1.839h-.055v-1.07h.045c.305-.046.794-.168.933-.538a.66.66 0 0 0 .035-.225v-4.32c0-.526-.194-.816-.663-.816h-.774c-.464 0-.663.29-.663.816v3.44h-1.088v-3.44c0-.526-.2-.816-.669-.816h-.838c-.469 0-.663.29-.663.816v4.314a.72.72 0 0 0 .034.231c.14.37.63.486.933.532h.04v1.07h-.05c-.997-.08-2.05-.468-2.05-1.839V60.11c0-1.301.668-1.833 1.746-1.833h.848c.472-.005.916.258 1.188.705h.025c.025 0 .02.012.025 0Zm-9.415 1.683v-.161a1.72 1.72 0 0 1 .424-1.262 1.678 1.678 0 0 1 1.222-.422h.454c.457.012.898.19 1.262.51.01.005.021.005.03 0v-1.042h1.108v6.142c0 1.307-.678 1.839-1.756 1.839h-1.283c-1.077 0-1.756-.532-1.756-1.84l.1-1.636h1.093l-.105 1.642c0 .527.2.81.668.81h1.283c.464 0 .668-.283.668-.81v-3.33a1.31 1.31 0 0 0-.084-.417c-.283-.48-.734-.792-1.233-.85h-.449c-.454 0-.614.324-.614.821l.05.943h-1.082v-.937Z" fill="#fd0" fill-rule="evenodd" data-name="Path 4444"/></g></svg>