<?xml version="1.0" encoding="UTF-8"?>
<svg version="1.1" xmlns="http://www.w3.org/2000/svg" width="225" height="225">
<path d="M0 0 C74.25 0 148.5 0 225 0 C225 74.25 225 148.5 225 225 C150.75 225 76.5 225 0 225 C0 150.75 0 76.5 0 0 Z " fill="#FEFEFE" transform="translate(0,0)"/>
<path d="M0 0 C6.5535708 0.89884044 10.57837317 4.89082586 14.5546875 9.99609375 C18.79736488 16.43542362 21.01390054 23.23531868 20 31 C17.6323622 42.18602527 13.00162641 49.15173931 4.9375 57 C-1.55388309 63.39034989 -5.56769109 68.8324349 -5.9921875 78.12890625 C-5.99476562 78.74636719 -5.99734375 79.36382812 -6 80 C-10.88925715 78.60306939 -13.05441957 76.06012438 -16 72 C-19.11793807 65.3947514 -19.06943594 58.19106622 -16.6875 51.3125 C-14.55698981 46.48231804 -11.53954229 42.34844454 -8.5 38.0625 C-0.37498343 26.5629698 2.66187467 16.83342363 0.48046875 2.61328125 C0.32191406 1.75089844 0.16335937 0.88851562 0 0 Z " fill="#E90D2B" transform="translate(109,43)"/>
<path d="M0 0 C5.64767984 5.45356973 8.1101938 9.56329198 8.4375 17.375 C8.19507671 25.06930449 5.26676636 31.41834852 0.1171875 37.1015625 C-3.94285071 40.74211336 -8.46382199 43.77984851 -12.953125 46.86328125 C-16.48411398 49.33950044 -18.20421102 51.15188075 -20 55 C-24.02299896 50.7706934 -26 48.08998983 -26 42 C-24.41574757 35.54112469 -20.31764323 32.19083834 -15.6328125 27.65625 C-7.45706897 19.40772537 -3.32032463 10.93472295 0 0 Z " fill="#61A413" transform="translate(135,75)"/>
<path d="M0 0 C3.94858313 2.04524919 6.43458156 4.10768208 7.97265625 8.26953125 C8.65299942 13.34659216 8.56910246 17.09794047 6.22265625 21.70703125 C2.15968412 26.33430507 -0.56014035 27.86478347 -6.71484375 28.3203125 C-10.53398346 28.23644626 -12.82956594 27.3386816 -16.02734375 25.26953125 C-19.54501673 20.6382754 -20.76522454 16.06716605 -20.02734375 10.26953125 C-18.75471139 6.09812519 -17.60424597 3.80522617 -14.40234375 0.83203125 C-9.51250933 -1.43178098 -5.13183242 -1.84904174 0 0 Z " fill="#070707" transform="translate(92.02734375,148.73046875)"/>
<path d="M0 0 C4.5478125 -0.1546875 4.5478125 -0.1546875 9.1875 -0.3125 C10.13391357 -0.35802002 11.08032715 -0.40354004 12.05541992 -0.45043945 C16.50788372 -0.52369409 18.41735398 -0.44272213 22.07421875 2.3359375 C24 5 24 5 24.625 7.9375 C23.76756645 12.13892437 21.93813421 13.91495908 19 17 C20.65 20.3 22.3 23.6 24 27 C21.36 27 18.72 27 16 27 C15.68546875 26.36191406 15.3709375 25.72382813 15.046875 25.06640625 C14.61890625 24.24011719 14.1909375 23.41382813 13.75 22.5625 C13.33234375 21.73878906 12.9146875 20.91507813 12.484375 20.06640625 C11.01047374 17.54473322 11.01047374 17.54473322 7 17 C7 20.3 7 23.6 7 27 C4.69 27 2.38 27 0 27 C0 18.09 0 9.18 0 0 Z " fill="#0A0A0A" transform="translate(160,149)"/>
<path d="M0 0 C2.64 0 5.28 0 8 0 C9.42627939 3.68366998 10.8503884 7.36817065 12.27246094 11.0534668 C12.75688538 12.30793105 13.24191004 13.56216368 13.72753906 14.81616211 C14.42409214 16.61511705 15.11833262 18.41496689 15.8125 20.21484375 C16.23144531 21.29886475 16.65039062 22.38288574 17.08203125 23.49975586 C18 26 18 26 18 27 C15.36 27 12.72 27 10 27 C10 25.68 10 24.36 10 23 C6.04 23 2.08 23 -2 23 C-2 24.32 -2 25.64 -2 27 C-4.64 27 -7.28 27 -10 27 C-8.71280829 23.24844889 -7.4194729 19.49904434 -6.125 15.75 C-5.57779297 14.15478516 -5.57779297 14.15478516 -5.01953125 12.52734375 C-4.66503906 11.50253906 -4.31054688 10.47773438 -3.9453125 9.421875 C-3.62062988 8.47924805 -3.29594727 7.53662109 -2.96142578 6.56542969 C-2.10489808 4.27990579 -1.13979948 2.15541847 0 0 Z " fill="#070707" transform="translate(139,149)"/>
<path d="M0 0 C3.625 1.5 3.625 1.5 6 3 C6 4.32 6 5.64 6 7 C2.03256016 8.10206662 0.58434725 7.79217362 -3 6 C-5.68993053 6.30378052 -5.68993053 6.30378052 -8 7 C-7.67 7.99 -7.34 8.98 -7 10 C-3.99157606 10.92946829 -0.9739583 11.4664345 2.1171875 12.05859375 C5.41493038 13.13549894 6.40355509 13.95835233 8 17 C7.92944302 20.95119107 7.60164569 23.21163668 5.1875 26.375 C0.79675123 29.63669908 -4.71066338 29.6667231 -10 29 C-13.31759072 27.7012771 -16.3496866 26.30062681 -18 23 C-16.02 22.01 -14.04 21.02 -12 20 C-11.01 20.66 -10.02 21.32 -9 22 C-6.71351152 22.24107326 -6.71351152 22.24107326 -4.3125 22.125 C-3.50425781 22.10695312 -2.69601563 22.08890625 -1.86328125 22.0703125 C-1.24839844 22.04710937 -0.63351563 22.02390625 0 22 C0 21.01 0 20.02 0 19 C-1.22976562 18.76216797 -1.22976562 18.76216797 -2.484375 18.51953125 C-11.21279213 16.6297663 -11.21279213 16.6297663 -14.8125 13.75 C-16.44207812 9.97624014 -16.20835252 7.9093758 -15 4 C-11.0189507 -1.00841686 -5.92449009 -0.82205843 0 0 Z " fill="#0A0A0A" transform="translate(61,148)"/>
<path d="M0 0 C5.64028777 2.92086331 5.64028777 2.92086331 7 7 C4 9 4 9 1.875 8.6875 C0 8 0 8 -1 7 C-4.45812169 6.66661404 -4.45812169 6.66661404 -8 7 C-10.47082138 10.70623207 -10.54464038 13.70339258 -10 18 C-9.06756129 20.57951684 -9.06756129 20.57951684 -7 22 C-3.95769177 22.50010524 -3.95769177 22.50010524 -1 22 C-0.34 21.34 0.32 20.68 1 20 C3.5625 20.25 3.5625 20.25 6 21 C6.33 21.66 6.66 22.32 7 23 C4.17432678 26.55487922 2.0229049 28.34450131 -2.4375 29 C-6.72587958 29.24220084 -9.41649508 28.50011971 -13 26 C-17.01383821 21.66071545 -18.41783751 18.17501564 -18.3515625 12.19921875 C-17.71728095 8.23143526 -15.65086828 4.97176286 -13 2 C-8.86489572 -0.62060107 -4.75562721 -0.68290149 0 0 Z " fill="#0A0A0A" transform="translate(121,148)"/>
<path d="M0 0 C3.24474984 0.27039582 4.79204902 0.8257708 7.3125 2.9375 C9.76278863 7.3843201 9.96699731 11.03511827 9 16 C7.34476572 19.58812076 5.22749245 22.74568785 3 26 C2.1934167 27.36630322 1.39954877 28.74028511 0.625 30.125 C0.08875 31.07375 -0.4475 32.0225 -1 33 C-4.875 31.25 -4.875 31.25 -6 29 C-6.81969164 21.62277521 -5.10653012 18.00593863 -1.3359375 11.73046875 C0.68201313 7.60606088 0.44393459 4.51333502 0 0 Z " fill="#09A0DF" transform="translate(95,50)"/>
<path d="M0 0 C1.875 0.37109375 1.875 0.37109375 3.875 1.80859375 C5.38868916 5.68742221 5.54490207 9.26888442 4.875 13.37109375 C3.25 15.93359375 3.25 15.93359375 0.875 17.37109375 C-2.69216403 17.96562109 -4.39951464 17.81020331 -7.5 15.93359375 C-9.90986908 12.13341558 -9.75965483 8.74940872 -9.125 4.37109375 C-7.35761874 -0.15782073 -4.45772603 -0.27041353 0 0 Z " fill="#F7F7F7" transform="translate(88.125,153.62890625)"/>
<path d="M0 0 C2.97 0 5.94 0 9 0 C9.625 2.375 9.625 2.375 10 5 C8 7 8 7 6.0546875 7.1953125 C4.03645833 7.13020833 2.01822917 7.06510417 0 7 C0 4.69 0 2.38 0 0 Z " fill="#F8F8F8" transform="translate(167,154)"/>
<path d="M0 0 C0.66 0 1.32 0 2 0 C3.19287411 3.87684087 4 6.91621923 4 11 C2.02 11 0.04 11 -2 11 C-1.125 3.375 -1.125 3.375 0 0 Z " fill="#E1E1E1" transform="translate(142,156)"/>
</svg>
